<svg xmlns="http://www.w3.org/2000/svg" viewBox="0 0 500 400">
  <defs>
    <linearGradient id="buildingGradient" x1="0%" y1="0%" x2="0%" y2="100%">
      <stop offset="0%" stop-color="#2563eb" />
      <stop offset="100%" stop-color="#1e40af" />
    </linearGradient>
    <linearGradient id="roofGradient" x1="0%" y1="0%" x2="100%" y2="0%">
      <stop offset="0%" stop-color="#3b82f6" />
      <stop offset="100%" stop-color="#1d4ed8" />
    </linearGradient>
  </defs>
  
  <!-- Background -->
  <rect width="500" height="400" fill="#f0f9ff" />
  
  <!-- Main Building -->
  <rect x="150" y="150" width="200" height="200" fill="url(#buildingGradient)" rx="5" ry="5" />
  
  <!-- Roof -->
  <polygon points="150,150 350,150 400,100 100,100" fill="url(#roofGradient)" />
  
  <!-- Windows -->
  <rect x="180" y="180" width="40" height="40" fill="#bfdbfe" rx="2" ry="2" />
  <rect x="280" y="180" width="40" height="40" fill="#bfdbfe" rx="2" ry="2" />
  <rect x="180" y="250" width="40" height="40" fill="#bfdbfe" rx="2" ry="2" />
  <rect x="280" y="250" width="40" height="40" fill="#bfdbfe" rx="2" ry="2" />
  
  <!-- Door -->
  <rect x="230" y="280" width="40" height="70" fill="#93c5fd" rx="2" ry="2" />
  <circle cx="245" cy="320" r="2" fill="#1e3a8a" />
  
  <!-- Medical Cross -->
  <rect x="240" y="100" width="20" height="60" fill="#ffffff" rx="2" ry="2" />
  <rect x="220" y="120" width="60" height="20" fill="#ffffff" rx="2" ry="2" />
  
  <!-- Side Wing -->
  <rect x="350" y="200" width="80" height="150" fill="#3b82f6" rx="3" ry="3" />
  <rect x="360" y="220" width="20" height="30" fill="#bfdbfe" rx="1" ry="1" />
  <rect x="400" y="220" width="20" height="30" fill="#bfdbfe" rx="1" ry="1" />
  <rect x="360" y="270" width="20" height="30" fill="#bfdbfe" rx="1" ry="1" />
  <rect x="400" y="270" width="20" height="30" fill="#bfdbfe" rx="1" ry="1" />
  
  <!-- Entrance Path -->
  <path d="M250,350 L250,400" stroke="#cbd5e1" stroke-width="30" stroke-linecap="round" />
  
  <!-- Ambulance -->
  <rect x="70" y="300" width="60" height="30" fill="#dc2626" rx="3" ry="3" />
  <rect x="80" y="290" width="40" height="10" fill="#dc2626" />
  <circle cx="90" cy="330" r="8" fill="#4b5563" />
  <circle cx="110" cy="330" r="8" fill="#4b5563" />
  <rect x="95" y="305" width="10" height="10" fill="#ffffff" />
  <path d="M100,290 L110,280 L120,290" fill="#fca5a5" />
  
  <!-- Trees -->
  <path d="M50,250 L60,200 L70,250 Z" fill="#16a34a" />
  <rect x="57" y="250" width="6" height="20" fill="#78350f" />
  
  <path d="M420,250 L430,200 L440,250 Z" fill="#16a34a" />
  <rect x="427" y="250" width="6" height="20" fill="#78350f" />
  
  <!-- Clouds -->
  <circle cx="400" cy="70" r="15" fill="#ffffff" opacity="0.8" />
  <circle cx="420" cy="70" r="20" fill="#ffffff" opacity="0.8" />
  <circle cx="440" cy="70" r="15" fill="#ffffff" opacity="0.8" />
  
  <circle cx="100" cy="60" r="15" fill="#ffffff" opacity="0.8" />
  <circle cx="120" cy="60" r="20" fill="#ffffff" opacity="0.8" />
  <circle cx="140" cy="60" r="15" fill="#ffffff" opacity="0.8" />
</svg>